<svg xmlns="http://www.w3.org/2000/svg" xmlns:xlink="http://www.w3.org/1999/xlink" contentStyleType="text/css" data-diagram-type="STATE" height="1944px" preserveAspectRatio="none" style="width:3082px;height:1944px;background:#FFFFFF;" version="1.1" viewBox="0 0 3082 1944" width="3082px" zoomAndPan="magnify"><title>Smart Helmet Detection System - State Diagram</title><defs/><g><g class="title" data-source-line="1"><text fill="#000000" font-family="sans-serif" font-size="14" font-weight="bold" lengthAdjust="spacing" textLength="383.79" x="1342.3625" y="22.9951">Smart Helmet Detection System - State Diagram</text></g><!--cluster CheckingHelmet--><g class="cluster" data-entity="CheckingHelmet" data-source-line="26" data-uid="ent0005" id="cluster_CheckingHelmet"><path d="M360.5,436.2169 L481.5,436.2169 A12.5,12.5 0 0 1 494,448.7169 L494,457.5138 L348,457.5138 L348,448.7169 A12.5,12.5 0 0 1 360.5,436.2169" fill="#F1F1F1"/><rect fill="none" height="227.86" rx="12.5" ry="12.5" style="stroke:#181818;stroke-width:0.5;" width="146" x="348" y="436.2169"/><line style="stroke:#181818;stroke-width:0.5;" x1="348" x2="494" y1="457.5138" y2="457.5138"/><text fill="#000000" font-family="sans-serif" font-size="14" lengthAdjust="spacing" textLength="115.4863" x="363.2568" y="453.212">CheckingHelmet</text></g><!--cluster HelmetNotProper--><g class="cluster" data-entity="HelmetNotProper" data-source-line="40" data-uid="ent0008" id="cluster_HelmetNotProper"><path d="M19.5,44.2969 L450.5,44.2969 A12.5,12.5 0 0 1 463,56.7969 L463,65.5938 L7,65.5938 L7,56.7969 A12.5,12.5 0 0 1 19.5,44.2969" fill="#F1F1F1"/><rect fill="none" height="326.92" rx="12.5" ry="12.5" style="stroke:#181818;stroke-width:0.5;" width="456" x="7" y="44.2969"/><line style="stroke:#181818;stroke-width:0.5;" x1="7" x2="463" y1="65.5938" y2="65.5938"/><text fill="#000000" font-family="sans-serif" font-size="14" lengthAdjust="spacing" textLength="121.3174" x="174.3413" y="61.292">HelmetNotProper</text></g><!--cluster BikeIgnitionCheck--><g class="cluster" data-entity="BikeIgnitionCheck" data-source-line="62" data-uid="ent0012" id="cluster_BikeIgnitionCheck"><path d="M752.5,554.0769 L1108.5,554.0769 A12.5,12.5 0 0 1 1121,566.5769 L1121,575.3738 L740,575.3738 L740,566.5769 A12.5,12.5 0 0 1 752.5,554.0769" fill="#F1F1F1"/><rect fill="none" height="436.95" rx="12.5" ry="12.5" style="stroke:#181818;stroke-width:0.5;" width="381" x="740" y="554.0769"/><line style="stroke:#181818;stroke-width:0.5;" x1="740" x2="1121" y1="575.3738" y2="575.3738"/><text fill="#000000" font-family="sans-serif" font-size="14" lengthAdjust="spacing" textLength="125.877" x="867.5615" y="571.072">BikeIgnitionCheck</text></g><!--cluster Riding--><g class="cluster" data-entity="Riding" data-source-line="83" data-uid="ent0016" id="cluster_Riding"><path d="M1173.5,870.3069 L1794.5,870.3069 A12.5,12.5 0 0 1 1807,882.8069 L1807,924.5413 L1161,924.5413 L1161,882.8069 A12.5,12.5 0 0 1 1173.5,870.3069" fill="#F1F1F1"/><rect fill="none" height="777.94" rx="12.5" ry="12.5" style="stroke:#181818;stroke-width:0.5;" width="646" x="1161" y="870.3069"/><line style="stroke:#181818;stroke-width:0.5;" x1="1161" x2="1807" y1="924.5413" y2="924.5413"/><line style="stroke:#181818;stroke-width:0.5;" x1="1161" x2="1807" y1="891.6038" y2="891.6038"/><text fill="#000000" font-family="sans-serif" font-size="14" lengthAdjust="spacing" textLength="44.1533" x="1461.9233" y="887.302">Riding</text><text fill="#000000" font-family="sans-serif" font-size="12" lengthAdjust="spacing" textLength="86.4844" x="1166" y="905.2424">Bike in motion</text><text fill="#000000" font-family="sans-serif" font-size="12" lengthAdjust="spacing" textLength="183.0117" x="1166" y="919.2112">Continuous helmet monitoring</text></g><!--cluster HelmetWarningCountdown--><g class="cluster" data-entity="HelmetWarningCountdown" data-source-line="98" data-uid="ent0019" id="cluster_HelmetWarningCountdown"><path d="M1338.5,1185.3869 L1576.5,1185.3869 A12.5,12.5 0 0 1 1589,1197.8869 L1589,1253.59 L1326,1253.59 L1326,1197.8869 A12.5,12.5 0 0 1 1338.5,1185.3869" fill="#F1F1F1"/><rect fill="none" height="297.48" rx="12.5" ry="12.5" style="stroke:#181818;stroke-width:0.5;" width="263" x="1326" y="1185.3869"/><line style="stroke:#181818;stroke-width:0.5;" x1="1326" x2="1589" y1="1253.59" y2="1253.59"/><line style="stroke:#181818;stroke-width:0.5;" x1="1326" x2="1589" y1="1206.6838" y2="1206.6838"/><text fill="#000000" font-family="sans-serif" font-size="14" lengthAdjust="spacing" textLength="188.8223" x="1363.0889" y="1202.382">HelmetWarningCountdown</text><text fill="#000000" font-family="sans-serif" font-size="12" lengthAdjust="spacing" textLength="121.6113" x="1331" y="1220.3224">Warning notification</text><text fill="#000000" font-family="sans-serif" font-size="12" lengthAdjust="spacing" textLength="124.3359" x="1331" y="1234.2912">3-minute countdown</text><text fill="#000000" font-family="sans-serif" font-size="12" lengthAdjust="spacing" textLength="158.1797" x="1331" y="1248.2599">"Wear helmet and buckle"</text></g><!--cluster BikeStopped--><g class="cluster" data-entity="BikeStopped" data-source-line="121" data-uid="ent0022" id="cluster_BikeStopped"><path d="M1859.5,1056.0269 L2754.5,1056.0269 A12.5,12.5 0 0 1 2767,1068.5269 L2767,1077.3238 L1847,1077.3238 L1847,1068.5269 A12.5,12.5 0 0 1 1859.5,1056.0269" fill="#F1F1F1"/><rect fill="none" height="446.96" rx="12.5" ry="12.5" style="stroke:#181818;stroke-width:0.5;" width="920" x="1847" y="1056.0269"/><line style="stroke:#181818;stroke-width:0.5;" x1="1847" x2="2767" y1="1077.3238" y2="1077.3238"/><text fill="#000000" font-family="sans-serif" font-size="14" lengthAdjust="spacing" textLength="88.4297" x="2262.7852" y="1073.022">BikeStopped</text></g><g class="entity" data-entity="HelmetStatus" data-uid="ent0006" id="entity_HelmetStatus"><polygon fill="#F1F1F1" points="398,616.0769,410,628.0769,398,640.0769,386,628.0769,398,616.0769" style="stroke:#181818;stroke-width:0.5;"/></g><g class="entity" data-entity="SideStandCheck" data-uid="ent0009" id="entity_SideStandCheck"><polygon fill="#F1F1F1" points="312,168.0069,324,180.0069,312,192.0069,300,180.0069,312,168.0069" style="stroke:#181818;stroke-width:0.5;"/></g><g id="HelmetNotProper.WarnHelmet"><rect fill="#F1F1F1" height="78.2031" rx="12.5" ry="12.5" style="stroke:#181818;stroke-width:0.5;" width="209.2168" x="31.39" y="269.0069"/><line style="stroke:#181818;stroke-width:0.5;" x1="31.39" x2="240.6068" y1="295.3038" y2="295.3038"/><text fill="#000000" font-family="sans-serif" font-size="14" lengthAdjust="spacing" textLength="87.8213" x="92.0878" y="287.002">WarnHelmet</text><text fill="#000000" font-family="sans-serif" font-size="12" lengthAdjust="spacing" textLength="154.0547" x="36.39" y="311.4424">Display warning message</text><text fill="#000000" font-family="sans-serif" font-size="12" lengthAdjust="spacing" textLength="189.2168" x="36.39" y="325.4112">"Wear helmet or fasten buckle"</text><text fill="#000000" font-family="sans-serif" font-size="12" lengthAdjust="spacing" textLength="143.1035" x="36.39" y="339.3799">Keep ignition DISABLED</text></g><g id="HelmetNotProper.SilentWait"><rect fill="#F1F1F1" height="64.2344" rx="12.5" ry="12.5" style="stroke:#181818;stroke-width:0.5;" width="163.1035" x="275.45" y="275.9969"/><line style="stroke:#181818;stroke-width:0.5;" x1="275.45" x2="438.5535" y1="302.2938" y2="302.2938"/><text fill="#000000" font-family="sans-serif" font-size="14" lengthAdjust="spacing" textLength="71.4424" x="321.2806" y="293.992">SilentWait</text><text fill="#000000" font-family="sans-serif" font-size="12" lengthAdjust="spacing" textLength="68.3965" x="280.45" y="318.4324">No warning</text><text fill="#000000" font-family="sans-serif" font-size="12" lengthAdjust="spacing" textLength="143.1035" x="280.45" y="332.4012">Keep ignition DISABLED</text></g><g class="entity" data-entity="StandCheck" data-uid="ent0013" id="entity_StandCheck"><polygon fill="#F1F1F1" points="918,616.0769,930,628.0769,918,640.0769,906,628.0769,918,616.0769" style="stroke:#181818;stroke-width:0.5;"/></g><g id="BikeIgnitionCheck.WarnStand"><rect fill="#F1F1F1" height="64.2344" rx="12.5" ry="12.5" style="stroke:#181818;stroke-width:0.5;" width="165.7109" x="764.14" y="735.0769"/><line style="stroke:#181818;stroke-width:0.5;" x1="764.14" x2="929.8509" y1="761.3738" y2="761.3738"/><text fill="#000000" font-family="sans-serif" font-size="14" lengthAdjust="spacing" textLength="77.7656" x="808.1127" y="753.072">WarnStand</text><text fill="#000000" font-family="sans-serif" font-size="12" lengthAdjust="spacing" textLength="145.7109" x="769.14" y="777.5124">Warning: "Put off stand"</text><text fill="#000000" font-family="sans-serif" font-size="12" lengthAdjust="spacing" textLength="143.1035" x="769.14" y="791.4812">Keep ignition DISABLED</text></g><g class="entity" data-entity="RidingHelmetCheck" data-uid="ent0017" id="entity_RidingHelmetCheck"><polygon fill="#F1F1F1" points="1369,1090.3869,1381,1102.3869,1369,1114.3869,1357,1102.3869,1369,1090.3869" style="stroke:#181818;stroke-width:0.5;"/></g><g id="Riding.ContinueRiding"><rect fill="#F1F1F1" height="50.2656" rx="12.5" ry="12.5" style="stroke:#181818;stroke-width:0.5;" width="127.1055" x="1382.45" y="1573.9869"/><line style="stroke:#181818;stroke-width:0.5;" x1="1382.45" x2="1509.5555" y1="1600.2838" y2="1600.2838"/><text fill="#000000" font-family="sans-serif" font-size="14" lengthAdjust="spacing" textLength="107.1055" x="1392.45" y="1591.982">ContinueRiding</text><text fill="#000000" font-family="sans-serif" font-size="12" lengthAdjust="spacing" textLength="81.8848" x="1387.45" y="1616.4224">Normal riding</text></g><g class="entity" data-entity="CountdownCheck" data-uid="ent0020" id="entity_CountdownCheck"><polygon fill="#F1F1F1" points="1499,1434.8669,1511,1446.8669,1499,1458.8669,1487,1446.8669,1499,1434.8669" style="stroke:#181818;stroke-width:0.5;"/></g><g class="entity" data-entity="StoppedStandCheck" data-uid="ent0023" id="entity_StoppedStandCheck"><polygon fill="#F1F1F1" points="1906,1313.7469,1918,1325.7469,1906,1337.7469,1894,1325.7469,1906,1313.7469" style="stroke:#181818;stroke-width:0.5;"/></g><g id="BikeStopped.HelmetOffReminder"><rect fill="#F1F1F1" height="64.2344" rx="12.5" ry="12.5" style="stroke:#181818;stroke-width:0.5;" width="184.8828" x="2042.56" y="1414.7469"/><line style="stroke:#181818;stroke-width:0.5;" x1="2042.56" x2="2227.4428" y1="1441.0438" y2="1441.0438"/><text fill="#000000" font-family="sans-serif" font-size="14" lengthAdjust="spacing" textLength="139.6445" x="2065.1791" y="1432.742">HelmetOffReminder</text><text fill="#000000" font-family="sans-serif" font-size="12" lengthAdjust="spacing" textLength="127.377" x="2047.56" y="1457.1824">Honking for 1 minute</text><text fill="#000000" font-family="sans-serif" font-size="12" lengthAdjust="spacing" textLength="164.8828" x="2047.56" y="1471.1512">"Remove helmet" reminder</text></g><g id="BikeStopped.NormalStop"><rect fill="#F1F1F1" height="50.2656" rx="12.5" ry="12.5" style="stroke:#181818;stroke-width:0.5;" width="152.6563" x="2433.67" y="1421.7369"/><line style="stroke:#181818;stroke-width:0.5;" x1="2433.67" x2="2586.3263" y1="1448.0338" y2="1448.0338"/><text fill="#000000" font-family="sans-serif" font-size="14" lengthAdjust="spacing" textLength="82.7285" x="2468.6339" y="1439.732">NormalStop</text><text fill="#000000" font-family="sans-serif" font-size="12" lengthAdjust="spacing" textLength="132.6563" x="2438.67" y="1464.1724">Normal stop condition</text></g><g id="PowerOff"><rect fill="#F1F1F1" height="50.2656" rx="12.5" ry="12.5" style="stroke:#181818;stroke-width:0.5;" width="229.8008" x="2395.1" y="1573.9869"/><line style="stroke:#181818;stroke-width:0.5;" x1="2395.1" x2="2624.9008" y1="1600.2838" y2="1600.2838"/><text fill="#000000" font-family="sans-serif" font-size="14" lengthAdjust="spacing" textLength="63.7041" x="2478.1483" y="1591.982">PowerOff</text><text fill="#000000" font-family="sans-serif" font-size="12" lengthAdjust="spacing" textLength="209.8008" x="2400.1" y="1616.4224">Both bike and helmet systems OFF</text></g><g id="SystemsOn"><rect fill="#F1F1F1" height="78.2031" rx="12.5" ry="12.5" style="stroke:#181818;stroke-width:0.5;" width="157.2383" x="1408.38" y="1719.2469"/><line style="stroke:#181818;stroke-width:0.5;" x1="1408.38" x2="1565.6183" y1="1745.5438" y2="1745.5438"/><text fill="#000000" font-family="sans-serif" font-size="14" lengthAdjust="spacing" textLength="79.3926" x="1447.3029" y="1737.242">SystemsOn</text><text fill="#000000" font-family="sans-serif" font-size="12" lengthAdjust="spacing" textLength="137.2383" x="1413.38" y="1761.6824">Both systems powered</text><text fill="#000000" font-family="sans-serif" font-size="12" lengthAdjust="spacing" textLength="109.2422" x="1413.38" y="1775.6512">Ignition DISABLED</text><text fill="#000000" font-family="sans-serif" font-size="12" lengthAdjust="spacing" textLength="104.1504" x="1413.38" y="1789.6199">BLE connecting...</text></g><g id="BLEConnected"><rect fill="#F1F1F1" height="64.2344" rx="12.5" ry="12.5" style="stroke:#181818;stroke-width:0.5;" width="185.5684" x="269.22" y="1874.4569"/><line style="stroke:#181818;stroke-width:0.5;" x1="269.22" x2="454.7884" y1="1900.7538" y2="1900.7538"/><text fill="#000000" font-family="sans-serif" font-size="14" lengthAdjust="spacing" textLength="101.6367" x="311.1858" y="1892.452">BLEConnected</text><text fill="#000000" font-family="sans-serif" font-size="12" lengthAdjust="spacing" textLength="165.5684" x="274.22" y="1916.8924">Systems connected via BLE</text><text fill="#000000" font-family="sans-serif" font-size="12" lengthAdjust="spacing" textLength="150.7734" x="274.22" y="1930.8612">Monitoring helmet status</text></g><g id="HelmetWornAndBuckled"><rect fill="#F1F1F1" height="64.2344" rx="12.5" ry="12.5" style="stroke:#181818;stroke-width:0.5;" width="190.8164" x="455.59" y="735.0769"/><line style="stroke:#181818;stroke-width:0.5;" x1="455.59" x2="646.4064" y1="761.3738" y2="761.3738"/><text fill="#000000" font-family="sans-serif" font-size="14" lengthAdjust="spacing" textLength="170.8164" x="465.59" y="753.072">HelmetWornAndBuckled</text><text fill="#000000" font-family="sans-serif" font-size="12" lengthAdjust="spacing" textLength="131.1035" x="460.59" y="777.5124">Helmet properly worn</text><text fill="#000000" font-family="sans-serif" font-size="12" lengthAdjust="spacing" textLength="135.6211" x="460.59" y="791.4812">Send OK signal to bike</text></g><g id="IgnitionEnabled"><rect fill="#F1F1F1" height="64.2344" rx="12.5" ry="12.5" style="stroke:#181818;stroke-width:0.5;" width="159.3242" x="1184.34" y="735.0769"/><line style="stroke:#181818;stroke-width:0.5;" x1="1184.34" x2="1343.6642" y1="761.3738" y2="761.3738"/><text fill="#000000" font-family="sans-serif" font-size="14" lengthAdjust="spacing" textLength="109.1699" x="1209.4171" y="753.072">IgnitionEnabled</text><text fill="#000000" font-family="sans-serif" font-size="12" lengthAdjust="spacing" textLength="139.3242" x="1189.34" y="777.5124">Ignition relay ENABLED</text><text fill="#000000" font-family="sans-serif" font-size="12" lengthAdjust="spacing" textLength="80.7363" x="1189.34" y="791.4812">Ready to ride</text></g><g id="ForceDisableIgnition"><rect fill="#F1F1F1" height="64.2344" rx="12.5" ry="12.5" style="stroke:#181818;stroke-width:0.5;" width="202.7832" x="2790.61" y="1414.7469"/><line style="stroke:#181818;stroke-width:0.5;" x1="2790.61" x2="2993.3932" y1="1441.0438" y2="1441.0438"/><text fill="#000000" font-family="sans-serif" font-size="14" lengthAdjust="spacing" textLength="143.2129" x="2820.3952" y="1432.742">ForceDisableIgnition</text><text fill="#000000" font-family="sans-serif" font-size="12" lengthAdjust="spacing" textLength="182.7832" x="2795.61" y="1457.1824">Ignition DISABLED while riding</text><text fill="#000000" font-family="sans-serif" font-size="12" lengthAdjust="spacing" textLength="152.2441" x="2795.61" y="1471.1512">Emergency stop required</text></g><ellipse cx="3038" cy="1446.8669" fill="#222222" rx="10" ry="10" style="stroke:#222222;stroke-width:1;"/><!--link *start* to PowerOff--><g class="link" data-entity-1=".start." data-entity-2="PowerOff" data-source-line="3" data-uid="lnk3" id="link_.start._PowerOff"><path d="M3037.24,1457.3369 C3035.48,1472.7269 3029.69,1503.0469 3011,1518.9869 C2954.45,1567.1769 2760.7503,1585.8756 2631.2003,1593.2556" fill="none" id="*start*-to-PowerOff" style="stroke:#181818;stroke-width:1;"/><polygon fill="#181818" points="2625.21,1593.5969,2634.4229,1597.0785,2630.2019,1593.3125,2633.9679,1589.0915,2625.21,1593.5969" style="stroke:#181818;stroke-width:1;"/><text fill="#000000" font-family="sans-serif" font-size="13" lengthAdjust="spacing" textLength="74.5151" x="3000" y="1540.0538">Initial State</text></g><!--link PowerOff to SystemsOn--><g class="link" data-entity-1="PowerOff" data-entity-2="SystemsOn" data-source-line="9" data-uid="lnk4" id="link_PowerOff_SystemsOn"><path d="M2394.64,1617.8469 C2184.71,1650.1169 1751.3204,1716.7255 1571.8604,1744.3055" fill="none" id="PowerOff-to-SystemsOn" style="stroke:#181818;stroke-width:1;"/><polygon fill="#181818" points="1565.93,1745.2169,1575.4332,1747.8034,1570.872,1744.4574,1574.218,1739.8962,1565.93,1745.2169" style="stroke:#181818;stroke-width:1;"/><text fill="#000000" font-family="sans-serif" font-size="13" lengthAdjust="spacing" textLength="155.4351" x="2030" y="1685.3138">Power ON both systems</text></g><!--link SystemsOn to BLEConnected--><g class="link" data-entity-1="SystemsOn" data-entity-2="BLEConnected" data-source-line="17" data-uid="lnk5" id="link_SystemsOn_BLEConnected"><path d="M1407.89,1769.6369 C1205.83,1795.8969 677.41,1864.5736 460.96,1892.7036" fill="none" id="SystemsOn-to-BLEConnected" style="stroke:#181818;stroke-width:1;"/><polygon fill="#181818" points="455.01,1893.4769,464.4505,1896.2836,459.9683,1892.8325,463.4194,1888.3503,455.01,1893.4769" style="stroke:#181818;stroke-width:1;"/><text fill="#000000" font-family="sans-serif" font-size="13" lengthAdjust="spacing" textLength="178.8389" x="959" y="1840.5238">BLE connection established</text></g><!--link BLEConnected to CheckingHelmet--><g class="link" data-entity-1="BLEConnected" data-entity-2="CheckingHelmet" data-source-line="24" data-uid="lnk6" id="link_BLEConnected_CheckingHelmet"><path d="M352.02,1873.9769 C343.63,1844.6069 333,1799.4669 333,1759.3469 C333,627.0769 333,627.0769 333,627.0769 C333,595.6819 338.395,560.9144 343.9588,533.4081 C344.6542,529.9698 345.3523,526.645 346.0429,523.4544 C346.3881,521.8591 346.7315,520.2974 347.0717,518.7718 C347.2418,518.009 347.4111,517.2552 347.5795,516.5108 C347.6637,516.1386 347.7476,515.7688 347.8313,515.4013 C347.8731,515.2176 346.5784,520.8837 346.6201,520.7011" fill="none" id="BLEConnected-to-CheckingHelmet" style="stroke:#181818;stroke-width:1;"/><polygon fill="#181818" points="347.9566,514.8519,342.0523,522.7347,346.8428,519.7263,349.8513,524.5168,347.9566,514.8519" style="stroke:#181818;stroke-width:1;"/><text fill="#000000" font-family="sans-serif" font-size="13" lengthAdjust="spacing" textLength="147.0244" x="334" y="1157.4538">Start helmet detection</text></g><!--link CheckingHelmet to HelmetStatus--><g class="link" data-entity-1="CheckingHelmet" data-entity-2="HelmetStatus" data-source-line="29" data-uid="lnk7" id="link_CheckingHelmet_HelmetStatus"><path d="M356.03,483.1769 C357.11,486.8769 384.8289,581.9372 393.7689,612.5672" fill="none" id="CheckingHelmet-to-HelmetStatus" style="stroke:#181818;stroke-width:1;"/><polygon fill="#181818" points="395.45,618.3269,396.7682,608.5666,394.0491,613.5271,389.0886,610.8081,395.45,618.3269" style="stroke:#181818;stroke-width:1;"/><text fill="#000000" font-family="sans-serif" font-size="13" lengthAdjust="spacing" textLength="93.9771" x="370" y="526.1438">Check sensors</text></g><!--link HelmetStatus to HelmetWornAndBuckled--><g class="link" data-entity-1="HelmetStatus" data-entity-2="HelmetWornAndBuckled" data-source-line="31" data-uid="lnk8" id="link_HelmetStatus_HelmetWornAndBuckled"><path d="M399.32,639.4269 C401.86,655.3469 408.75,685.9769 426,705.0769 C436.69,716.9069 444.9519,723.7352 459.0819,731.7552" fill="none" id="HelmetStatus-to-HelmetWornAndBuckled" style="stroke:#181818;stroke-width:1;"/><polygon fill="#181818" points="464.3,734.7169,458.4474,726.7956,459.9516,732.2488,454.4984,733.753,464.3,734.7169" style="stroke:#181818;stroke-width:1;"/><text fill="#000000" font-family="sans-serif" font-size="13" lengthAdjust="spacing" textLength="320.0742" x="427" y="701.1438">[Pressure sensor + Touch sensor + Buckle = OK]</text></g><!--link HelmetStatus to HelmetNotProper--><g class="link" data-entity-1="HelmetStatus" data-entity-2="HelmetNotProper" data-source-line="32" data-uid="lnk9" id="link_HelmetStatus_HelmetNotProper"><path d="M404.94,622.8369 C429.24,607.4169 509,551.5669 509,483.0769 C509,179.0069 509,179.0069 509,179.0069 C509,150.9369 504.77,139.8969 484,121.0069 C480.235,117.5831 476.0753,114.5498 471.6651,111.8625 C469.46,110.5189 467.1923,109.2617 464.88,108.0855 C464.302,107.7914 469.1157,110.1289 468.5323,109.8449" fill="none" id="HelmetStatus-to-HelmetNotProper" style="stroke:#181818;stroke-width:1;"/><polygon fill="#181818" points="463.1377,107.2184,469.4786,114.7545,467.6332,109.4072,472.9806,107.5617,463.1377,107.2184" style="stroke:#181818;stroke-width:1;"/><text fill="#000000" font-family="sans-serif" font-size="13" lengthAdjust="spacing" textLength="203.3979" x="510" y="312.6838">[Missing helmet OR unbuckled]</text></g><!--link HelmetNotProper to SideStandCheck--><g class="link" data-entity-1="HelmetNotProper" data-entity-2="SideStandCheck" data-source-line="43" data-uid="lnk10" id="link_HelmetNotProper_SideStandCheck"><path d="M390.77,91.2669 C386.9,95.5769 338.4693,149.533 321.3593,168.583" fill="none" id="HelmetNotProper-to-SideStandCheck" style="stroke:#181818;stroke-width:1;"/><polygon fill="#181818" points="317.35,173.0469,326.3398,169.024,320.691,169.327,320.388,163.6783,317.35,173.0469" style="stroke:#181818;stroke-width:1;"/><text fill="#000000" font-family="sans-serif" font-size="13" lengthAdjust="spacing" textLength="111.2173" x="364" y="134.0738">Check side stand</text></g><!--link SideStandCheck to WarnHelmet--><g class="link" data-entity-1="SideStandCheck" data-entity-2="WarnHelmet" data-source-line="45" data-uid="lnk11" id="link_SideStandCheck_WarnHelmet"><path d="M303.12,183.5869 C285.72,188.9169 246.36,202.2969 218,222.0069 C199.3,235.0169 185.4077,248.2717 171.1277,264.1817" fill="none" id="SideStandCheck-to-WarnHelmet" style="stroke:#181818;stroke-width:1;"/><polygon fill="#181818" points="167.12,268.6469,176.1084,264.6209,170.4598,264.9259,170.1548,259.2772,167.12,268.6469" style="stroke:#181818;stroke-width:1;"/><text fill="#000000" font-family="sans-serif" font-size="13" lengthAdjust="spacing" textLength="100.2041" x="219" y="235.0738">[Side stand UP]</text></g><!--link SideStandCheck to SilentWait--><g class="link" data-entity-1="SideStandCheck" data-entity-2="SilentWait" data-source-line="46" data-uid="lnk12" id="link_SideStandCheck_SilentWait"><path d="M314.95,189.2869 C321.09,206.4869 333.5049,241.2554 343.7349,269.9454" fill="none" id="SideStandCheck-to-SilentWait" style="stroke:#181818;stroke-width:1;"/><polygon fill="#181818" points="345.75,275.5969,346.4949,265.7762,344.0707,270.8873,338.9596,268.4631,345.75,275.5969" style="stroke:#181818;stroke-width:1;"/><text fill="#000000" font-family="sans-serif" font-size="13" lengthAdjust="spacing" textLength="125.6709" x="333" y="235.0738">[Side stand DOWN]</text></g><!--link HelmetWornAndBuckled to BikeIgnitionCheck--><g class="link" data-entity-1="HelmetWornAndBuckled" data-entity-2="BikeIgnitionCheck" data-source-line="60" data-uid="lnk13" id="link_HelmetWornAndBuckled_BikeIgnitionCheck"><path d="M594.68,799.6869 C614.9425,814.3019 640.5131,832.745 667.5522,852.2469 C681.0717,861.9978 694.9584,872.0134 708.7321,881.9476 C715.619,886.9146 722.4777,891.8613 729.2482,896.7444 C732.6334,899.1859 731.1302,898.1018 734.4639,900.5061" fill="none" id="HelmetWornAndBuckled-to-BikeIgnitionCheck" style="stroke:#181818;stroke-width:1;"/><polygon fill="#181818" points="739.3303,904.0158,734.3705,895.507,735.2749,901.0911,729.6909,901.9955,739.3303,904.0158" style="stroke:#181818;stroke-width:1;"/><text fill="#000000" font-family="sans-serif" font-size="13" lengthAdjust="spacing" textLength="172.7959" x="656" y="842.3738">Helmet OK signal received</text></g><!--link BikeIgnitionCheck to StandCheck--><g class="link" data-entity-1="BikeIgnitionCheck" data-entity-2="StandCheck" data-source-line="65" data-uid="lnk14" id="link_BikeIgnitionCheck_StandCheck"><path d="M847.06,981.6269 C849.61,979.7169 931.47,918.2169 957,846.3069 C985.08,767.2369 939.3509,669.7987 924.7409,641.7387" fill="none" id="BikeIgnitionCheck-to-StandCheck" style="stroke:#181818;stroke-width:1;"/><polygon fill="#181818" points="921.97,636.4169,922.5785,646.2469,924.2791,640.8517,929.6743,642.5524,921.97,636.4169" style="stroke:#181818;stroke-width:1;"/><text fill="#000000" font-family="sans-serif" font-size="13" lengthAdjust="spacing" textLength="111.2173" x="966" y="771.7638">Check side stand</text></g><!--link StandCheck to IgnitionEnabled--><g class="link" data-entity-1="StandCheck" data-entity-2="IgnitionEnabled" data-source-line="67" data-uid="lnk15" id="link_StandCheck_IgnitionEnabled"><path d="M927.54,630.8469 C957.85,636.6669 1054.33,656.6269 1129,688.0769 C1159.32,700.8469 1186.1729,715.9214 1211.3729,731.5714" fill="none" id="StandCheck-to-IgnitionEnabled" style="stroke:#181818;stroke-width:1;"/><polygon fill="#181818" points="1216.47,734.7369,1210.9347,726.5907,1212.2225,732.099,1206.7141,733.3868,1216.47,734.7369" style="stroke:#181818;stroke-width:1;"/><text fill="#000000" font-family="sans-serif" font-size="13" lengthAdjust="spacing" textLength="100.2041" x="1164" y="701.1438">[Side stand UP]</text></g><!--link StandCheck to WarnStand--><g class="link" data-entity-1="StandCheck" data-entity-2="WarnStand" data-source-line="68" data-uid="lnk16" id="link_StandCheck_WarnStand"><path d="M907.96,630.6769 C884.57,635.0169 826.63,649.3969 803,688.0769 C793.75,703.2169 797.7274,715.6692 809.1374,730.0292" fill="none" id="StandCheck-to-WarnStand" style="stroke:#181818;stroke-width:1;"/><polygon fill="#181818" points="812.87,734.7269,810.4029,725.192,809.7595,730.8122,804.1394,730.1688,812.87,734.7269" style="stroke:#181818;stroke-width:1;"/><text fill="#000000" font-family="sans-serif" font-size="13" lengthAdjust="spacing" textLength="125.6709" x="804" y="701.1438">[Side stand DOWN]</text></g><!--link IgnitionEnabled to Riding--><g class="link" data-entity-1="IgnitionEnabled" data-entity-2="Riding" data-source-line="81" data-uid="lnk17" id="link_IgnitionEnabled_Riding"><path d="M1279.49,799.6869 C1286.6775,814.3019 1295.7481,832.745 1305.3398,852.2469 C1307.7378,857.1223 1310.1683,862.064 1312.6101,867.0285 C1312.9153,867.6491 1313.2207,868.27 1313.5262,868.8912 C1313.679,869.2018 1311.1837,864.1285 1311.3365,864.4392" fill="none" id="IgnitionEnabled-to-Riding" style="stroke:#181818;stroke-width:1;"/><polygon fill="#181818" points="1313.9846,869.8232,1313.6018,859.9818,1311.7779,865.3365,1306.4231,863.5126,1313.9846,869.8232" style="stroke:#181818;stroke-width:1;"/><text fill="#000000" font-family="sans-serif" font-size="13" lengthAdjust="spacing" textLength="73.2012" x="1301" y="842.3738">Start riding</text></g><!--link Riding to RidingHelmetCheck--><g class="link" data-entity-1="Riding" data-entity-2="RidingHelmetCheck" data-source-line="89" data-uid="lnk18" id="link_Riding_RidingHelmetCheck"><path d="M1369,983.7569 C1369,986.6269 1369,1055.0469 1369,1084.0069" fill="none" id="Riding-to-RidingHelmetCheck" style="stroke:#181818;stroke-width:1;"/><polygon fill="#181818" points="1369,1090.0069,1373,1081.0069,1369,1085.0069,1365,1081.0069,1369,1090.0069" style="stroke:#181818;stroke-width:1;"/><text fill="#000000" font-family="sans-serif" font-size="13" lengthAdjust="spacing" textLength="99.1567" x="1370" y="1028.0938">Monitor helmet</text></g><!--link RidingHelmetCheck to ContinueRiding--><g class="link" data-entity-1="RidingHelmetCheck" data-entity-2="ContinueRiding" data-source-line="91" data-uid="lnk19" id="link_RidingHelmetCheck_ContinueRiding"><path d="M1362.9,1108.6569 C1331.28,1136.6369 1189.31,1270.7569 1236,1384.7469 C1270.77,1469.6369 1352.4821,1535.4885 1402.9421,1570.3185" fill="none" id="RidingHelmetCheck-to-ContinueRiding" style="stroke:#181818;stroke-width:1;"/><polygon fill="#181818" points="1407.88,1573.7269,1402.7454,1565.3224,1403.7651,1570.8866,1398.2009,1571.9062,1407.88,1573.7269" style="stroke:#181818;stroke-width:1;"/><text fill="#000000" font-family="sans-serif" font-size="13" lengthAdjust="spacing" textLength="80.1772" x="1237" y="1380.8138">[Helmet OK]</text></g><!--link ContinueRiding to RidingHelmetCheck--><g class="link" data-entity-1="ContinueRiding" data-entity-2="RidingHelmetCheck" data-source-line="147" data-uid="lnk34" id="link_ContinueRiding_RidingHelmetCheck"><path d="M1510.04,1589.0169 C1561.14,1580.2869 1626.77,1565.2769 1643,1543.9869 C1751.5,1401.6369 1718.14,1272.3569 1593,1144.3869 C1562.8,1113.5069 1426.9649,1105.7246 1386.0649,1104.0346" fill="none" id="ContinueRiding-to-RidingHelmetCheck" style="stroke:#181818;stroke-width:1;"/><polygon fill="#181818" points="1380.07,1103.7869,1388.8972,1108.155,1385.0657,1103.9933,1389.2275,1100.1619,1380.07,1103.7869" style="stroke:#181818;stroke-width:1;"/><text fill="#000000" font-family="sans-serif" font-size="13" lengthAdjust="spacing" textLength="133.5547" x="1709" y="1380.8138">Continue monitoring</text></g><!--link RidingHelmetCheck to HelmetWarningCountdown--><g class="link" data-entity-1="RidingHelmetCheck" data-entity-2="HelmetWarningCountdown" data-source-line="92" data-uid="lnk20" id="link_RidingHelmetCheck_HelmetWarningCountdown"><path d="M1369,1114.9769 C1369,1126.1869 1369,1144.5838 1369,1165.9513 C1369,1171.2931 1369,1176.8207 1369,1182.468 C1369,1183.1739 1369,1177.8817 1369,1178.5912" fill="none" id="RidingHelmetCheck-to-HelmetWarningCountdown" style="stroke:#181818;stroke-width:1;"/><polygon fill="#181818" points="1369,1184.5912,1373,1175.5912,1369,1179.5912,1365,1175.5912,1369,1184.5912" style="stroke:#181818;stroke-width:1;"/><text fill="#000000" font-family="sans-serif" font-size="13" lengthAdjust="spacing" textLength="214.3604" x="1370" y="1157.4538">[Helmet removed OR unbuckled]</text></g><!--link HelmetWarningCountdown to CountdownCheck--><g class="link" data-entity-1="HelmetWarningCountdown" data-entity-2="CountdownCheck" data-source-line="108" data-uid="lnk21" id="link_HelmetWarningCountdown_CountdownCheck"><path d="M1368.96,1326.8569 C1368.05,1329.0769 1353.75,1364.9669 1369,1384.7469 C1400.99,1426.2469 1442.15,1381.9469 1483,1414.7469 C1490.01,1420.3769 1492.3651,1424.204 1494.7051,1431.234" fill="none" id="HelmetWarningCountdown-to-CountdownCheck" style="stroke:#181818;stroke-width:1;"/><polygon fill="#181818" points="1496.6,1436.9269,1497.5529,1427.1242,1495.0209,1432.1828,1489.9623,1429.6508,1496.6,1436.9269" style="stroke:#181818;stroke-width:1;"/><text fill="#000000" font-family="sans-serif" font-size="13" lengthAdjust="spacing" textLength="210.4692" x="1370" y="1380.8138">After 3 minutes OR helmet fixed</text></g><!--link CountdownCheck to ContinueRiding--><g class="link" data-entity-1="CountdownCheck" data-entity-2="ContinueRiding" data-source-line="110" data-uid="lnk22" id="link_CountdownCheck_ContinueRiding"><path d="M1499.9,1458.4769 C1500.6,1474.0569 1499.39,1502.9769 1483,1518.9869 C1470.03,1531.6469 1454.49,1512.9669 1443,1526.9869 C1432.5,1539.7969 1432.4039,1552.844 1436.0439,1567.944" fill="none" id="CountdownCheck-to-ContinueRiding" style="stroke:#181818;stroke-width:1;"/><polygon fill="#181818" points="1437.45,1573.7769,1439.2295,1564.0901,1436.2783,1568.9161,1431.4523,1565.9649,1437.45,1573.7769" style="stroke:#181818;stroke-width:1;"/><text fill="#000000" font-family="sans-serif" font-size="13" lengthAdjust="spacing" textLength="194.6001" x="1444" y="1540.0538">[Helmet fixed before timeout]</text></g><!--link CountdownCheck to ForceDisableIgnition--><g class="link" data-entity-1="CountdownCheck" data-entity-2="ForceDisableIgnition" data-source-line="111" data-uid="lnk23" id="link_CountdownCheck_ForceDisableIgnition"><path d="M1510.06,1445.3669 C1578.36,1436.2269 1949.77,1387.7469 2254.5,1372.8569 C2349.94,1368.1869 2374.19,1365.9869 2469.5,1372.8569 C2599.17,1382.1869 2631.34,1390.1569 2759,1414.7469 C2769.15,1416.7069 2773.8222,1417.6282 2784.3322,1419.9582" fill="none" id="CountdownCheck-to-ForceDisableIgnition" style="stroke:#181818;stroke-width:1;"/><polygon fill="#181818" points="2790.19,1421.2569,2782.2691,1415.4037,2785.3085,1420.1747,2780.5376,1423.2141,2790.19,1421.2569" style="stroke:#181818;stroke-width:1;"/><text fill="#000000" font-family="sans-serif" font-size="13" lengthAdjust="spacing" textLength="213.7827" x="2255.5" y="1380.8138">[3 min timeout + still no helmet]</text></g><!--link Riding to BikeStopped--><g class="link" data-entity-1="Riding" data-entity-2="BikeStopped" data-source-line="119" data-uid="lnk24" id="link_Riding_BikeStopped"><path d="M1807.0227,1043.6531 C1807.179,1043.73 1807.3353,1043.8073 1807.4914,1043.8849 C1807.8037,1044.0401 1808.1158,1044.1965 1808.4275,1044.3542 C1809.0509,1044.6696 1809.6731,1044.9899 1810.294,1045.315 C1811.5357,1045.9652 1812.7721,1046.6342 1814.002,1047.3201 C1818.9216,1050.0638 1823.7384,1053.078 1828.3875,1056.2359 C1833.0366,1059.3939 1837.5178,1062.6957 1841.7662,1066.0147 C1842.8283,1066.8445 1843.8758,1067.6753 1844.9078,1068.5052 C1845.4237,1068.9202 1845.9358,1069.335 1846.4439,1069.7492 C1846.5709,1069.8528 1846.6977,1069.9563 1846.8242,1070.0598 C1846.8558,1070.0857 1842.2451,1066.3104 1842.2767,1066.3362" fill="none" id="Riding-to-BikeStopped" style="stroke:#181818;stroke-width:1;"/><polygon fill="#181818" points="1846.919,1070.1374,1842.4897,1061.3408,1843.0504,1066.9698,1837.4215,1067.5305,1846.919,1070.1374" style="stroke:#181818;stroke-width:1;"/><text fill="#000000" font-family="sans-serif" font-size="13" lengthAdjust="spacing" textLength="61.0771" x="1774" y="1028.0938">Stop bike</text></g><!--link BikeStopped to StoppedStandCheck--><g class="link" data-entity-1="BikeStopped" data-entity-2="StoppedStandCheck" data-source-line="124" data-uid="lnk25" id="link_BikeStopped_StoppedStandCheck"><path d="M1880.02,1103.5469 C1880.7,1109.3669 1899.0407,1265.4778 1904.0807,1308.4278" fill="none" id="BikeStopped-to-StoppedStandCheck" style="stroke:#181818;stroke-width:1;"/><polygon fill="#181818" points="1904.78,1314.3869,1907.7038,1304.982,1904.1973,1309.4209,1899.7583,1305.9144,1904.78,1314.3869" style="stroke:#181818;stroke-width:1;"/><text fill="#000000" font-family="sans-serif" font-size="13" lengthAdjust="spacing" textLength="87.2231" x="1887" y="1157.4538">Check stands</text></g><!--link StoppedStandCheck to HelmetOffReminder--><g class="link" data-entity-1="StoppedStandCheck" data-entity-2="HelmetOffReminder" data-source-line="126" data-uid="lnk26" id="link_StoppedStandCheck_HelmetOffReminder"><path d="M1902.79,1334.8469 C1898.54,1347.0369 1892.81,1370.2169 1904,1384.7469 C1921.27,1407.1869 1979.891,1422.0259 2036.371,1431.9759" fill="none" id="StoppedStandCheck-to-HelmetOffReminder" style="stroke:#181818;stroke-width:1;"/><polygon fill="#181818" points="2042.28,1433.0169,2034.1105,1427.5161,2037.3558,1432.1494,2032.7225,1435.3947,2042.28,1433.0169" style="stroke:#181818;stroke-width:1;"/><text fill="#000000" font-family="sans-serif" font-size="13" lengthAdjust="spacing" textLength="341.834" x="1905" y="1380.8138">[Side stand OR main stand DOWN + helmet still ON]</text></g><!--link StoppedStandCheck to NormalStop--><g class="link" data-entity-1="StoppedStandCheck" data-entity-2="NormalStop" data-source-line="127" data-uid="lnk27" id="link_StoppedStandCheck_NormalStop"><path d="M1917.22,1326.9069 C1992.57,1328.0269 2423.3,1335.8069 2471,1367.7469 C2489.26,1379.9769 2497.6541,1397.6615 2502.9641,1415.6815" fill="none" id="StoppedStandCheck-to-NormalStop" style="stroke:#181818;stroke-width:1;"/><polygon fill="#181818" points="2504.66,1421.4369,2505.953,1411.6733,2503.2467,1416.6408,2498.2792,1413.9345,2504.66,1421.4369" style="stroke:#181818;stroke-width:1;"/><text fill="#000000" font-family="sans-serif" font-size="13" lengthAdjust="spacing" textLength="231.6323" x="2488" y="1380.8138">[Stands UP OR helmet already OFF]</text></g><!--link HelmetOffReminder to PowerOff--><g class="link" data-entity-1="HelmetOffReminder" data-entity-2="PowerOff" data-source-line="139" data-uid="lnk28" id="link_HelmetOffReminder_PowerOff"><path d="M2211.67,1479.4369 C2257.78,1498.3369 2317.67,1522.7469 2371,1543.9869 C2395.54,1553.7569 2416.9968,1562.1653 2440.6668,1571.3553" fill="none" id="HelmetOffReminder-to-PowerOff" style="stroke:#181818;stroke-width:1;"/><polygon fill="#181818" points="2446.26,1573.5269,2439.3179,1566.5407,2441.599,1571.7172,2436.4224,1573.9983,2446.26,1573.5269" style="stroke:#181818;stroke-width:1;"/><text fill="#000000" font-family="sans-serif" font-size="13" lengthAdjust="spacing" textLength="129.1558" x="2372" y="1540.0538">After 1 min honking</text></g><!--link NormalStop to PowerOff--><g class="link" data-entity-1="NormalStop" data-entity-2="PowerOff" data-source-line="140" data-uid="lnk29" id="link_NormalStop_PowerOff"><path d="M2510,1472.3369 C2510,1500.2769 2510,1539.7169 2510,1567.6569" fill="none" id="NormalStop-to-PowerOff" style="stroke:#181818;stroke-width:1;"/><polygon fill="#181818" points="2510,1573.6569,2514,1564.6569,2510,1568.6569,2506,1564.6569,2510,1573.6569" style="stroke:#181818;stroke-width:1;"/><text fill="#000000" font-family="sans-serif" font-size="13" lengthAdjust="spacing" textLength="116.0352" x="2511" y="1540.0538">System shutdown</text></g><!--link ForceDisableIgnition to PowerOff--><g class="link" data-entity-1="ForceDisableIgnition" data-entity-2="PowerOff" data-source-line="141" data-uid="lnk30" id="link_ForceDisableIgnition_PowerOff"><path d="M2838.42,1479.4169 C2814.6,1492.6769 2785.9,1507.6269 2759,1518.9869 C2707.91,1540.5469 2654.5882,1557.8709 2606.8082,1571.8609" fill="none" id="ForceDisableIgnition-to-PowerOff" style="stroke:#181818;stroke-width:1;"/><polygon fill="#181818" points="2601.05,1573.5469,2610.8114,1574.8567,2605.8485,1572.1419,2608.5634,1567.179,2601.05,1573.5469" style="stroke:#181818;stroke-width:1;"/><text fill="#000000" font-family="sans-serif" font-size="13" lengthAdjust="spacing" textLength="141.1084" x="2740" y="1540.0538">Emergency shutdown</text></g><!--link WarnHelmet to CheckingHelmet--><g class="link" data-entity-1="WarnHelmet" data-entity-2="CheckingHelmet" data-source-line="144" data-uid="lnk31" id="link_WarnHelmet_CheckingHelmet"><path d="M168.86,347.3569 C187.63,367.9369 212.29,392.9669 237,412.2169 C260.77,430.7319 289.97,447.8219 313.4963,460.4044 C325.2594,466.6956 335.6041,471.86 343.1423,475.5122 C344.0846,475.9687 344.9831,476.4016 345.8349,476.8101 C346.2609,477.0144 346.6752,477.2125 347.0775,477.4045 C347.2786,477.5005 347.4768,477.5949 347.6719,477.6878 C347.7695,477.7343 342.4475,475.2041 342.5436,475.2498" fill="none" id="WarnHelmet-to-CheckingHelmet" style="stroke:#181818;stroke-width:1;"/><polygon fill="#181818" points="347.9623,477.826,341.5516,470.3492,343.4467,475.6791,338.1167,477.5742,347.9623,477.826" style="stroke:#181818;stroke-width:1;"/><text fill="#000000" font-family="sans-serif" font-size="13" lengthAdjust="spacing" textLength="109.5225" x="238" y="408.2838">Re-check helmet</text></g><!--link SilentWait to CheckingHelmet--><g class="link" data-entity-1="SilentWait" data-entity-2="CheckingHelmet" data-source-line="145" data-uid="lnk32" id="link_SilentWait_CheckingHelmet"><path d="M356.82,340.3469 C356.68,364.8069 356.48,399.4019 356.3125,428.2294 C356.302,430.0311 356.2917,431.8103 356.2815,433.5631 C356.2764,434.4394 356.3062,429.3093 356.3012,430.172" fill="none" id="SilentWait-to-CheckingHelmet" style="stroke:#181818;stroke-width:1;"/><polygon fill="#181818" points="356.2663,436.1719,360.3186,427.1954,356.2954,431.172,352.3187,427.1488,356.2663,436.1719" style="stroke:#181818;stroke-width:1;"/><text fill="#000000" font-family="sans-serif" font-size="13" lengthAdjust="spacing" textLength="109.5225" x="357" y="408.2838">Re-check helmet</text></g><!--link WarnStand to BikeIgnitionCheck--><g class="link" data-entity-1="WarnStand" data-entity-2="BikeIgnitionCheck" data-source-line="146" data-uid="lnk33" id="link_WarnStand_BikeIgnitionCheck"><path d="M847,799.6869 C847,858.1469 847,971.8569 847,975.5769" fill="none" id="WarnStand-to-BikeIgnitionCheck" style="stroke:#181818;stroke-width:1;"/><polygon fill="#181818" points="847,981.5769,851,972.5769,847,976.5769,843,972.5769,847,981.5769" style="stroke:#181818;stroke-width:1;"/><text fill="#000000" font-family="sans-serif" font-size="13" lengthAdjust="spacing" textLength="100.2422" x="848" y="842.3738">Re-check stand</text></g><!--SRC=[ZLTDRziu4BthLmnyAT150Ynw2xe1aZX1WxIsOM_XG-23BD4s4OdqabIpGP7_lZFya2ZAyWRmnUHxCu-SByfmKp5OrRaoy8rLDJCmPOOLXai1gpTjM0qNi3AvOJ3b-LxbTPOzVzx0nSKrBEGhK_FT3gxWKN33yyeXiqnRGhl_EuCOV2lD0RRyXK4kIZWujzewqp1_UCZUiwo5aoCdHCy5akq6p6Um9IkU5JnsG78PqsuZD1p91YiJoEEU3e7ddZwkRcw_tqzJ4z_leP12qEs8_UNb9Udi02GK8NSEmSg4WNOPYjnMN1_GjHVS8v3cn88t7wpWsY-U4sW8_I5HlbGehRrITD5eKjc3aj2x0ojU4EfZVaM1mnJmn3AaG92Pm4cest0BA-i8lduj3f8NxFeQz_6NiCXl3t_b4A2Pq59fH-eXEifQAd4ZojkcUAdiSPyNYcdTAERfy0VyBPlYqFrrMFWBva-RSSCpQHPA7Z6dqEOFhdLqWVCbD6BhN6xe7kD39uf-jou6KltvZzPDzGQl21X7hnWMnVm9DDyBh2WZRQcatZlPNJ1Ml6HuFb6wQqt3aH9jPVKfRKHmcOoAqb4J637NkH9jzZolMWByN6nECrQyOiAiSvuoflFrRECSkOD4jkbqq7SsvVfOvNYDk4Z1gZ4FyZqR0YThbgiGIqo9NOx59C05T3B4Fp5s17wY2xp7ug9ZE76zSyraq3NSEsCVetio7MnJmV27tXJ2v3LtQQ9OmVYlgB4CI56UZEV8a6OZzu4CwSSwsBWNsF5SlGvJP9XGTkaZsU60NN84ujhTFSP-qM3CSNvO8vC1y7midAFq4EHkUB1sR2X6MNa_2vQ6q2NBopUgQ8N78pyfXEvXoKlAwj2IbVqR9FbDKjBYA6R01TJIjkne1ti-Zgf6OiFpLL2tGoA-KKTmENKwBxp9JbyCRcUFzn9JOfmTF4uIQpK-jwcy6INvqd2nlPEDCALy5H5PiLfYyYSDEpfXujObpa3BJAgQQibTULBt8oASgL65VWa41cV7Yzo7w0pZoqMDej1X4HRFutjTZfAxws_lWvbrIdsu8RzsRdWC-2waFUOLtEmCZfSluCwXAIfUtex_otp3I5XdSyFIOCjs4iUzuJMJZTcSjl4WLS5mGb0zjPM9bgoQmCN7WJQygZ0gNbaqtKzQe7iQCJruDiBh0Rj-bqKZlFkQgJqJnHjgaKTCuNyQJezI519L6nNt2lUFxcr0IFiSYDfys8uRl5tvdpuVUAx3fuosqTEI3aq-HNNLYM_r9SCxBjrBAchW6FuwnyllsZdUV_j4fJ3CPvjHwwucxS79h5M30oHAghnIjg_YbyDcMB2nhhXM-tg_IK4lLS0CWpzzuew29qlRRhp_2NKVkvLsZ4YwyzmxYsysDlZul2-vRmtHOo1sctnmkHgpKk7Wn6UH-GJjl-JqeN4DvMHA9fmeFmCj-uGZp3HAm34t1srlIx6Bmh_pi-WrTV8ZO-cnOKv4hwEFuF5gkn4-zZ9gEUvnalIKiG4MOD60_0y0]--></g></svg>